PathFileType	4	(X/Y/Z)	Patient4_TMGait_0pt4_02_left_02.trc.trc
DataRate	CameraRate	NumFrames	NumMarkers	Units	OrigDataRate	OrigDataStartFrame	OrigNumFrames
72.538860103627	72.538860103627	4	33	mm	72.538860103627	89	       141
Frame#	Time	Sacral			L.Shoulder			Chest			R.Shoulder			Neck			R.ASIS			L.ASIS			R.Thigh.Superior			R.Thigh.Lateral			R.Thigh.Inferior			R.Patella			L.Thigh.Superior			L.Thigh.Lateral			L.Thigh.Inferior			L.Patella			L.Shank.Superior			L.Shank.Lateral			L.Shank.Inferior			R.Shank.Superior			R.Shank.Lateral			R.Shank.Inferior			R.Heel			R.Midfoot.Superior			R.Midfoot.Lateral			R.Toe			L.Heel			L.Midfoot.Lateral			L.Midfoot.Superior			L.Toe			L.Elbow			L.Wrist			R.Elbow			R.Wrist			
		X1	Y1	Z1	X2	Y2	Z2	X3	Y3	Z3	X4	Y4	Z4	X5	Y5	Z5	X6	Y6	Z6	X7	Y7	Z7	X8	Y8	Z8	X9	Y9	Z9	X10	Y10	Z10	X11	Y11	Z11	X12	Y12	Z12	X13	Y13	Z13	X14	Y14	Z14	X15	Y15	Z15	X16	Y16	Z16	X17	Y17	Z17	X18	Y18	Z18	X19	Y19	Z19	X20	Y20	Z20	X21	Y21	Z21	X22	Y22	Z22	X23	Y23	Z23	X24	Y24	Z24	X25	Y25	Z25	X26	Y26	Z26	X27	Y27	Z27	X28	Y28	Z28	X29	Y29	Z29	X30	Y30	Z30	X31	Y31	Z31	X32	Y32	Z32	X33	Y33	Z33	

89	3.753142857143	875.714477231839	1000.903665924331	493.009848573937	1056.537433241624	1435.506434118938	317.142297894135	1152.563648722761	1368.775702285131	483.286681537245	1057.976128358063	1438.602910952928	652.977996100743	1029.841733041651	1495.413897937309	473.216148730470	1107.309706035550	943.368384234082	611.395094804103	1094.551926765196	967.894389708942	335.946198213703	1162.195139722885	746.553944876743	577.619487645339	1090.609361305489	633.527399855401	640.448718393973	1168.921827060576	586.526045834921	556.840748949309	1175.550980129702	499.080365031041	562.426201990318	1132.723593620591	745.466061429242	357.394041866962	1043.972127058990	631.727277540575	289.420585483937	1129.406084140174	547.061052296299	345.129521886531	1122.618081889548	464.395549009416	343.028497360708	1060.804524897282	403.944635189103	337.845666754729	927.005048529223	345.169472701831	286.944619171704	926.881940396110	217.393478013834	347.268983573797	1151.296510691319	408.836207825452	572.603882727525	1088.963346628086	303.686683530510	641.928026317465	1129.352372890434	209.464681673100	576.213826772983	998.635782937743	42.922111444361	560.567783016220	1172.047564047967	98.016895229824	579.295318174412	1089.016532806974	37.548524916198	626.896950763902	1294.886991804650	46.518252401593	595.195517239080	746.067247622418	123.778136526120	383.445998331372	812.281586053829	88.528250829224	305.460116061329	912.410397892805	118.196377946800	328.814392071571	1010.672171744833	33.878117064442	304.888183011149	1062.131351424451	1087.266419548532	188.811123880887	1253.786201266503	905.398848812635	197.104616883335	1005.840268546543	1095.139281775210	772.958386380972	1117.188373185248	858.737096951951	767.660683458143	
90	3.766928571429	875.078044710188	1001.239849152573	496.960607382412	1054.319090383880	1435.943811740974	319.927422674048	1152.277375933380	1368.916787974270	484.870403992411	1059.845351387741	1438.637154856181	655.725095066688	1029.561478008990	1495.677668268339	476.278155552931	1107.598546833251	943.739479108698	613.430851045864	1092.674141975772	967.982558804971	338.168002075624	1160.692682223174	745.926880691790	580.437059538044	1087.861288147171	633.376847186778	642.723038052877	1165.763359451547	585.989599627117	559.002179904093	1171.399203884254	498.670274706563	564.039746914983	1136.785512335843	748.363077786056	359.622107720057	1052.934031696093	632.355772103131	290.565780476928	1141.346226885456	549.865315727310	345.896421724439	1136.039840030572	465.994846762894	343.132976988640	1072.312563063610	405.278733129239	338.193629202673	936.440390771446	351.081079142510	287.402782123055	932.132321262804	223.207789678231	347.260748230834	1147.030325284454	408.485226541429	573.978886170222	1084.457651985193	303.274150507800	642.865373250388	1124.331636219700	209.187624604664	576.830140165729	992.895270433381	42.876381782408	560.741361400180	1166.406507792686	97.859807007401	579.499377387545	1083.326310097850	37.457051098654	627.082737544532	1289.235054483238	46.294029220434	595.376122046267	747.667116767513	137.574005540988	383.328536539471	812.331057587999	98.938159832461	305.388910564371	914.082024638753	123.614085292374	328.661712289203	1007.713926110629	33.433060571877	304.929101052429	1054.885959300459	1087.182591382705	192.520845083012	1243.024107722974	901.391136846623	196.616149596528	1015.194540405087	1095.033355466872	778.855865311992	1135.614411111747	863.292969772413	771.656183736940	
91	3.780714285714	874.225814837643	1001.533242048324	500.761280405971	1051.936670183759	1436.246756988567	322.507739050945	1151.863420630089	1368.935458667319	486.202275523556	1061.671542853527	1438.548602321042	658.253366869754	1029.219224903257	1495.842793863272	479.137753358861	1107.698055203009	943.984921100656	615.290692271876	1090.408046576110	967.799954836060	340.337262346366	1159.029827204411	745.284447840521	582.751541336124	1085.318743594325	633.200448059199	644.798419303242	1162.533826807506	585.434929353782	560.760269036903	1167.274074593092	498.226475019556	565.400395649741	1140.500452152106	751.446100426387	361.677202982318	1061.462991276012	633.414601286624	291.563038042283	1152.715515864253	553.221075613834	346.532536148537	1149.066394094150	468.298891129687	343.213040605695	1083.806050805222	407.133087292686	338.423954150933	946.136545459422	356.975322149508	287.839841298816	938.221817560516	229.027737344205	347.264358527894	1142.787693741009	408.088610552146	575.156343294877	1080.008541428770	302.829724413048	643.657877751339	1119.290019642831	208.866751772505	577.330550533643	987.111137926163	42.808948666044	560.919154858621	1160.717693053543	97.689322055816	579.663105581490	1077.599205190295	37.364246199757	627.263620866471	1283.543964057053	46.070434128540	595.512829903048	750.716347627668	150.469708129490	383.356217730065	813.911954496756	109.022027198269	305.349419917194	917.028403875358	129.159023728924	328.559923530658	1006.475168761765	33.332583125623	304.731606543587	1047.528609144057	1087.088641435270	195.928954874077	1231.763845015941	897.281731908424	195.655934425652	1024.655235302568	1095.033196500684	784.577017051903	1154.073768916765	868.423423025491	775.248835450631	
92	3.794500000000	873.189786462376	1001.829333666172	504.411666799727	1049.464849637153	1436.456199077891	324.885083183045	1151.354376933800	1368.869426119300	487.304118454613	1063.454872191734	1438.395949481277	660.555265791136	1028.841031177643	1495.951803930715	481.777111846489	1107.622019139573	944.118354933857	616.996290338474	1087.805719705528	967.437475535924	342.463435038935	1157.254476895377	744.659356908224	584.543958732369	1082.991792732632	633.009668711031	646.646748172813	1159.275146767877	584.874536080837	562.110265716863	1163.207594538204	497.761847623180	566.488558776132	1143.759092013927	754.724028449761	363.582741574978	1069.354823979165	634.945865358478	292.432984694273	1163.277859226506	557.124998469367	347.045189514318	1161.455732777597	471.316861868422	343.227841549284	1095.093637634185	409.520575237340	338.508147541886	955.935811301165	362.630470460263	288.261248134253	945.246238066034	234.567843803320	347.241662415925	1138.598476627807	407.665283689900	576.118243846060	1075.641613495278	302.377034147319	644.301353522218	1114.261442412050	208.525078590923	577.710727733452	981.334642367751	42.729832981176	561.089882023963	1155.020819932106	97.528725375715	579.792295734125	1071.874573893330	37.281525985564	627.433884232905	1277.851510246753	45.875548936834	595.616218030068	755.436567705308	161.699459396763	383.526336463517	817.334561653336	118.160030554954	305.316836923861	921.532360475163	134.505748524818	328.431502309709	1007.507806364233	33.654421897482	304.186339803622	1040.111764435877	1087.019391403810	199.058314253043	1220.000323399462	893.096294790098	194.269745867323	1034.191196695898	1095.186693063054	790.025297562046	1172.505193834381	874.199408614609	778.335141669973	
